<svg width="32" height="23" viewBox="0 0 32 23" fill="none" xmlns="http://www.w3.org/2000/svg">
<path opacity="0.7" d="M0 8.14795L0.00457185 14.1164H13.5464C13.5464 14.1164 16.533 10.9819 13.514 8.14795H0Z" fill="#DDDDDD"/>
<path opacity="0.9" d="M8.81717 11.1169L2.08456 4.80221C2.08456 4.80221 0.0837895 2.87115 2.11847 0.814762C2.11847 0.814762 3.78553 -1.06677 6.12687 0.888667L13.5581 8.15652C13.5581 8.15652 16.5189 10.8754 13.5581 14.1223L7.29069 20.5695C7.29069 20.5695 4.54591 23.605 2.03923 21.3543C2.03923 21.3543 -0.262497 19.1299 3.06933 16.4606" fill="#DDDDDD"/>
<path d="M24.3887 11.1169L31.1198 4.80221C31.1198 4.80221 33.1217 2.87115 31.0874 0.814762C31.0874 0.814762 29.4203 -1.06677 27.079 0.888667L19.6466 8.15652C19.6466 8.15652 16.6854 10.8754 19.6466 14.1223L25.914 20.5695C25.914 20.5695 28.6588 23.605 31.1666 21.3543C31.1666 21.3543 33.4676 19.1299 30.1365 16.4606" fill="#EEEEEE"/>
</svg>
