<svg width="32" height="23" viewBox="0 0 32 23" fill="none" xmlns="http://www.w3.org/2000/svg">
<path opacity="0.7" d="M0 8.14795L0.00457185 14.1164H13.5464C13.5464 14.1164 16.533 10.9819 13.514 8.14795H0Z" fill="#222222"/>
<path opacity="0.9" d="M8.8172 11.1169L2.08459 4.80221C2.08459 4.80221 0.08382 2.87115 2.1185 0.814762C2.1185 0.814762 3.78556 -1.06677 6.1269 0.888667L13.5582 8.15652C13.5582 8.15652 16.519 10.8754 13.5582 14.1223L7.29072 20.5695C7.29072 20.5695 4.54594 23.605 2.03926 21.3543C2.03926 21.3543 -0.262467 19.1299 3.06936 16.4606" fill="#222222"/>
<path d="M24.3887 11.1169L31.1198 4.80221C31.1198 4.80221 33.1217 2.87115 31.0874 0.814762C31.0874 0.814762 29.4203 -1.06677 27.079 0.888667L19.6466 8.15652C19.6466 8.15652 16.6854 10.8754 19.6466 14.1223L25.914 20.5695C25.914 20.5695 28.6588 23.605 31.1666 21.3543C31.1666 21.3543 33.4676 19.1299 30.1365 16.4606" fill="#111111"/>
</svg>
