<svg width="116" height="20" viewBox="0 0 116 20" fill="none" xmlns="http://www.w3.org/2000/svg">
<path d="M6.008 5.896C7.112 5.896 8.056 6.136 8.84 6.616C9.64 7.096 10.248 7.776 10.664 8.656C11.096 9.52 11.312 10.536 11.312 11.704V12.976H2.504C2.536 14.432 2.904 15.544 3.608 16.312C4.328 17.064 5.328 17.44 6.608 17.44C7.424 17.44 8.144 17.368 8.768 17.224C9.408 17.064 10.064 16.84 10.736 16.552V18.4C10.08 18.688 9.432 18.896 8.792 19.024C8.152 19.168 7.392 19.24 6.512 19.24C5.296 19.24 4.216 18.992 3.272 18.496C2.344 18 1.616 17.264 1.088 16.288C0.576 15.296 0.32 14.088 0.32 12.664C0.32 11.256 0.552 10.048 1.016 9.04C1.496 8.032 2.16 7.256 3.008 6.712C3.872 6.168 4.872 5.896 6.008 5.896ZM5.984 7.624C4.976 7.624 4.176 7.952 3.584 8.608C3.008 9.248 2.664 10.144 2.552 11.296H9.104C9.104 10.56 8.992 9.92 8.768 9.376C8.544 8.832 8.2 8.408 7.736 8.104C7.288 7.784 6.704 7.624 5.984 7.624ZM19.1469 19.24C17.5469 19.24 16.2669 18.688 15.3069 17.584C14.3469 16.464 13.8669 14.8 13.8669 12.592C13.8669 10.384 14.3469 8.72 15.3069 7.6C16.2829 6.464 17.5709 5.896 19.1709 5.896C19.8429 5.896 20.4269 5.984 20.9229 6.16C21.4189 6.32 21.8509 6.544 22.2189 6.832C22.5869 7.12 22.8989 7.44 23.1549 7.792H23.2989C23.2829 7.584 23.2509 7.28 23.2029 6.88C23.1709 6.464 23.1549 6.136 23.1549 5.896V0.759999H25.2669V19H23.5629L23.2509 17.272H23.1549C22.8989 17.64 22.5869 17.976 22.2189 18.28C21.8509 18.568 21.4109 18.8 20.8989 18.976C20.4029 19.152 19.8189 19.24 19.1469 19.24ZM19.4829 17.488C20.8429 17.488 21.7949 17.12 22.3389 16.384C22.8989 15.632 23.1789 14.504 23.1789 13V12.616C23.1789 11.016 22.9149 9.792 22.3869 8.944C21.8589 8.08 20.8829 7.648 19.4589 7.648C18.3229 7.648 17.4669 8.104 16.8909 9.016C16.3309 9.912 16.0509 11.12 16.0509 12.64C16.0509 14.176 16.3309 15.368 16.8909 16.216C17.4669 17.064 18.3309 17.488 19.4829 17.488ZM31.4645 19H29.3525V0.759999H31.4645V19ZM46.724 12.544C46.724 13.616 46.58 14.568 46.292 15.4C46.02 16.216 45.62 16.912 45.092 17.488C44.58 18.064 43.948 18.504 43.196 18.808C42.46 19.096 41.636 19.24 40.724 19.24C39.876 19.24 39.092 19.096 38.372 18.808C37.652 18.504 37.028 18.064 36.5 17.488C35.972 16.912 35.556 16.216 35.252 15.4C34.964 14.568 34.82 13.616 34.82 12.544C34.82 11.12 35.06 9.92 35.54 8.944C36.02 7.952 36.708 7.2 37.604 6.688C38.5 6.16 39.564 5.896 40.796 5.896C41.964 5.896 42.988 6.16 43.868 6.688C44.764 7.2 45.46 7.952 45.956 8.944C46.468 9.92 46.724 11.12 46.724 12.544ZM37.004 12.544C37.004 13.552 37.132 14.432 37.388 15.184C37.66 15.92 38.076 16.488 38.636 16.888C39.196 17.288 39.908 17.488 40.772 17.488C41.636 17.488 42.348 17.288 42.908 16.888C43.468 16.488 43.876 15.92 44.132 15.184C44.404 14.432 44.54 13.552 44.54 12.544C44.54 11.52 44.404 10.648 44.132 9.928C43.86 9.208 43.444 8.656 42.884 8.272C42.34 7.872 41.628 7.672 40.748 7.672C39.436 7.672 38.484 8.104 37.892 8.968C37.3 9.832 37.004 11.024 37.004 12.544ZM60.8233 6.136V19H59.0953L58.7833 17.296H58.6873C58.4153 17.744 58.0633 18.112 57.6313 18.4C57.1993 18.688 56.7273 18.896 56.2153 19.024C55.7033 19.168 55.1673 19.24 54.6073 19.24C53.5833 19.24 52.7193 19.08 52.0153 18.76C51.3273 18.424 50.8073 17.912 50.4553 17.224C50.1033 16.536 49.9273 15.648 49.9273 14.56V6.136H52.0633V14.416C52.0633 15.44 52.2953 16.208 52.7593 16.72C53.2233 17.232 53.9433 17.488 54.9193 17.488C55.8793 17.488 56.6313 17.312 57.1753 16.96C57.7353 16.592 58.1273 16.064 58.3513 15.376C58.5913 14.672 58.7113 13.824 58.7113 12.832V6.136H60.8233ZM64.5952 17.704C64.5952 17.112 64.7392 16.696 65.0272 16.456C65.3152 16.216 65.6592 16.096 66.0592 16.096C66.4752 16.096 66.8272 16.216 67.1152 16.456C67.4192 16.696 67.5712 17.112 67.5712 17.704C67.5712 18.28 67.4192 18.696 67.1152 18.952C66.8272 19.208 66.4752 19.336 66.0592 19.336C65.6592 19.336 65.3152 19.208 65.0272 18.952C64.7392 18.696 64.5952 18.28 64.5952 17.704Z" fill="white"/>
<path d="M76.4891 19.24C75.3531 19.24 74.3371 19.008 73.4411 18.544C72.5611 18.08 71.8651 17.36 71.3531 16.384C70.8571 15.408 70.6091 14.16 70.6091 12.64C70.6091 11.056 70.8731 9.768 71.4011 8.776C71.9291 7.784 72.6411 7.056 73.5371 6.592C74.4491 6.128 75.4811 5.896 76.6331 5.896C77.2891 5.896 77.9211 5.968 78.5291 6.112C79.1371 6.24 79.6331 6.4 80.0171 6.592L79.3691 8.344C78.9851 8.2 78.5371 8.064 78.0251 7.936C77.5131 7.808 77.0331 7.744 76.5851 7.744C75.7211 7.744 75.0091 7.928 74.4491 8.296C73.8891 8.664 73.4731 9.208 73.2011 9.928C72.9291 10.648 72.7931 11.544 72.7931 12.616C72.7931 13.64 72.9291 14.512 73.2011 15.232C73.4731 15.952 73.8811 16.496 74.4251 16.864C74.9691 17.232 75.6491 17.416 76.4651 17.416C77.1691 17.416 77.7851 17.344 78.3131 17.2C78.8571 17.056 79.3531 16.88 79.8011 16.672V18.544C79.3691 18.768 78.8891 18.936 78.3611 19.048C77.8491 19.176 77.2251 19.24 76.4891 19.24ZM94.0443 12.544C94.0443 13.616 93.9003 14.568 93.6123 15.4C93.3403 16.216 92.9403 16.912 92.4123 17.488C91.9003 18.064 91.2683 18.504 90.5163 18.808C89.7803 19.096 88.9563 19.24 88.0443 19.24C87.1963 19.24 86.4123 19.096 85.6923 18.808C84.9723 18.504 84.3483 18.064 83.8203 17.488C83.2923 16.912 82.8763 16.216 82.5723 15.4C82.2843 14.568 82.1403 13.616 82.1403 12.544C82.1403 11.12 82.3803 9.92 82.8603 8.944C83.3403 7.952 84.0283 7.2 84.9243 6.688C85.8203 6.16 86.8843 5.896 88.1163 5.896C89.2843 5.896 90.3083 6.16 91.1883 6.688C92.0843 7.2 92.7803 7.952 93.2763 8.944C93.7883 9.92 94.0443 11.12 94.0443 12.544ZM84.3243 12.544C84.3243 13.552 84.4523 14.432 84.7083 15.184C84.9803 15.92 85.3963 16.488 85.9563 16.888C86.5163 17.288 87.2283 17.488 88.0923 17.488C88.9563 17.488 89.6683 17.288 90.2283 16.888C90.7883 16.488 91.1963 15.92 91.4523 15.184C91.7243 14.432 91.8603 13.552 91.8603 12.544C91.8603 11.52 91.7243 10.648 91.4523 9.928C91.1803 9.208 90.7643 8.656 90.2043 8.272C89.6603 7.872 88.9483 7.672 88.0683 7.672C86.7563 7.672 85.8043 8.104 85.2123 8.968C84.6203 9.832 84.3243 11.024 84.3243 12.544ZM111.504 5.896C112.96 5.896 114.048 6.272 114.768 7.024C115.488 7.76 115.848 8.96 115.848 10.624V19H113.76V10.72C113.76 9.712 113.544 8.952 113.112 8.44C112.696 7.928 112.04 7.672 111.144 7.672C109.896 7.672 109 8.032 108.456 8.752C107.928 9.472 107.664 10.52 107.664 11.896V19H105.576V10.72C105.576 10.048 105.48 9.488 105.288 9.04C105.096 8.576 104.808 8.232 104.424 8.008C104.04 7.784 103.544 7.672 102.936 7.672C102.072 7.672 101.392 7.856 100.896 8.224C100.4 8.576 100.04 9.096 99.8156 9.784C99.6076 10.472 99.5036 11.32 99.5036 12.328V19H97.3916V6.136H99.0956L99.4076 7.888H99.5276C99.7996 7.44 100.128 7.072 100.512 6.784C100.912 6.48 101.352 6.256 101.832 6.112C102.312 5.968 102.808 5.896 103.32 5.896C104.312 5.896 105.136 6.072 105.792 6.424C106.464 6.776 106.952 7.32 107.256 8.056H107.376C107.808 7.32 108.392 6.776 109.128 6.424C109.88 6.072 110.672 5.896 111.504 5.896Z" fill="#FF6600"/>
</svg>
